<svg version="1.1" xmlns="http://www.w3.org/2000/svg" xmlns:xlink="http://www.w3.org/1999/xlink" width="885" height="772"><defs/><g><g><rect fill="#C0C0C0" stroke="none" x="207" y="87" width="345.6" height="15" transform="matrix(1 0 0 1 -190 -70)" fill-opacity="0.2"/></g><g><rect fill="#C0C0C0" stroke="none" x="207" y="101" width="864" height="738" transform="matrix(1 0 0 1 -190 -70)" fill-opacity="0.2"/></g><g><rect fill="#98C3F3" stroke="none" x="200" y="95" width="864" height="737" transform="matrix(1 0 0 1 -190 -70)"/></g><g><path fill="none" stroke="#000000" paint-order="fill stroke markers" d=" M 10 25 L 874 25 L 874 762 L 10 762 L 10 25 Z Z" stroke-miterlimit="10" stroke-dasharray=""/></g><g><rect fill="#98C3F3" stroke="none" x="200" y="80" width="345.6" height="15" transform="matrix(1 0 0 1 -190 -70)"/></g><g><path fill="none" stroke="#000000" paint-order="fill stroke markers" d=" M 10 10 L 355.6 10 L 355.6 25 L 10 25 L 10 10 Z Z" stroke-miterlimit="10" stroke-dasharray=""/></g><g><rect fill="#98C3F3" stroke="none" x="200" y="94" width="864" height="738" transform="matrix(1 0 0 1 -190 -70)"/></g><g><path fill="none" stroke="#000000" paint-order="fill stroke markers" d=" M 10 24 L 874 24 L 874 762 L 10 762 L 10 24 Z Z" stroke-miterlimit="10" stroke-dasharray=""/></g><g><g><path fill="none" stroke="none"/><text fill="#000000" stroke="none" font-family="Arial" font-size="13px" font-style="normal" font-weight="bold" text-decoration="undefined" x="632.5" y="108.5" text-anchor="middle" dominant-baseline="central" transform="matrix(1 0 0 1 -190 -70)">Boggle</text></g></g><g><rect fill="#C0C0C0" stroke="none" x="799" y="399" width="89.60000000000002" height="15" transform="matrix(1 0 0 1 -190 -70)" fill-opacity="0.2"/></g><g><rect fill="#C0C0C0" stroke="none" x="799" y="413" width="224" height="186" transform="matrix(1 0 0 1 -190 -70)" fill-opacity="0.2"/></g><g><rect fill="#DEBADE" stroke="none" x="792" y="407" width="224" height="185" transform="matrix(1 0 0 1 -190 -70)"/></g><g><path fill="none" stroke="#000000" paint-order="fill stroke markers" d=" M 602 337 L 826 337 L 826 522 L 602 522 L 602 337 Z Z" stroke-miterlimit="10" stroke-dasharray=""/></g><g><rect fill="#DEBADE" stroke="none" x="792" y="392" width="89.60000000000002" height="15" transform="matrix(1 0 0 1 -190 -70)"/></g><g><path fill="none" stroke="#000000" paint-order="fill stroke markers" d=" M 602 322 L 691.6 322 L 691.6 337 L 602 337 L 602 322 Z Z" stroke-miterlimit="10" stroke-dasharray=""/></g><g><rect fill="#DEBADE" stroke="none" x="792" y="406" width="224" height="186" transform="matrix(1 0 0 1 -190 -70)"/></g><g><path fill="none" stroke="#000000" paint-order="fill stroke markers" d=" M 602 336 L 826 336 L 826 522 L 602 522 L 602 336 Z Z" stroke-miterlimit="10" stroke-dasharray=""/></g><g><g><path fill="none" stroke="none"/><text fill="#000000" stroke="none" font-family="Arial" font-size="13px" font-style="normal" font-weight="bold" text-decoration="undefined" x="904.5" y="420.5" text-anchor="middle" dominant-baseline="central" transform="matrix(1 0 0 1 -190 -70)">exceptions</text></g></g><g><rect fill="#C0C0C0" stroke="none" x="287" y="359" width="89.60000000000002" height="15" transform="matrix(1 0 0 1 -190 -70)" fill-opacity="0.2"/></g><g><rect fill="#C0C0C0" stroke="none" x="287" y="373" width="224" height="346" transform="matrix(1 0 0 1 -190 -70)" fill-opacity="0.2"/></g><g><rect fill="#93CAA4" stroke="none" x="280" y="367" width="224" height="345" transform="matrix(1 0 0 1 -190 -70)"/></g><g><path fill="none" stroke="#000000" paint-order="fill stroke markers" d=" M 90 297 L 314 297 L 314 642 L 90 642 L 90 297 Z Z" stroke-miterlimit="10" stroke-dasharray=""/></g><g><rect fill="#93CAA4" stroke="none" x="280" y="352" width="89.60000000000002" height="15" transform="matrix(1 0 0 1 -190 -70)"/></g><g><path fill="none" stroke="#000000" paint-order="fill stroke markers" d=" M 90 282 L 179.60000000000002 282 L 179.60000000000002 297 L 90 297 L 90 282 Z Z" stroke-miterlimit="10" stroke-dasharray=""/></g><g><rect fill="#93CAA4" stroke="none" x="280" y="366" width="224" height="346" transform="matrix(1 0 0 1 -190 -70)"/></g><g><path fill="none" stroke="#000000" paint-order="fill stroke markers" d=" M 90 296 L 314 296 L 314 642 L 90 642 L 90 296 Z Z" stroke-miterlimit="10" stroke-dasharray=""/></g><g><g><path fill="none" stroke="none"/><text fill="#000000" stroke="none" font-family="Arial" font-size="13px" font-style="normal" font-weight="bold" text-decoration="undefined" x="392.5" y="380.5" text-anchor="middle" dominant-baseline="central" transform="matrix(1 0 0 1 -190 -70)">util</text></g></g><g><rect fill="#C0C0C0" stroke="none" x="831" y="455" width="164.578125" height="45" transform="matrix(1 0 0 1 -190 -70)" fill-opacity="0.2"/></g><g><rect fill="#E9DBE9" stroke="none" x="824" y="448" width="164.578125" height="45" transform="matrix(1 0 0 1 -190 -70)"/></g><g><path fill="none" stroke="#000000" paint-order="fill stroke markers" d=" M 634 378 L 798.578125 378 L 798.578125 423 L 634 423 L 634 378 Z Z" stroke-miterlimit="10" stroke-dasharray=""/></g><g><path fill="none" stroke="#000000" paint-order="fill stroke markers" d=" M 634 403 L 798.578125 403" stroke-miterlimit="10" stroke-dasharray=""/></g><g><path fill="none" stroke="#000000" paint-order="fill stroke markers" d=" M 634 413 L 798.578125 413" stroke-miterlimit="10" stroke-dasharray=""/></g><g><g><path fill="none" stroke="none"/><text fill="#000000" stroke="none" font-family="Arial" font-size="13px" font-style="normal" font-weight="bold" text-decoration="undefined" x="906.7890625" y="461.5" text-anchor="middle" dominant-baseline="central" transform="matrix(1 0 0 1 -190 -70)">NoSuchChoiceException</text></g></g><g><rect fill="#C0C0C0" stroke="none" x="831" y="519" width="155.91357421875" height="45" transform="matrix(1 0 0 1 -190 -70)" fill-opacity="0.2"/></g><g><rect fill="#E9DBE9" stroke="none" x="824" y="512" width="155.91357421875" height="45" transform="matrix(1 0 0 1 -190 -70)"/></g><g><path fill="none" stroke="#000000" paint-order="fill stroke markers" d=" M 634 442 L 789.91357421875 442 L 789.91357421875 487 L 634 487 L 634 442 Z Z" stroke-miterlimit="10" stroke-dasharray=""/></g><g><path fill="none" stroke="#000000" paint-order="fill stroke markers" d=" M 634 467 L 789.91357421875 467" stroke-miterlimit="10" stroke-dasharray=""/></g><g><path fill="none" stroke="#000000" paint-order="fill stroke markers" d=" M 634 477 L 789.91357421875 477" stroke-miterlimit="10" stroke-dasharray=""/></g><g><g><path fill="none" stroke="none"/><text fill="#000000" stroke="none" font-family="Arial" font-size="13px" font-style="normal" font-weight="bold" text-decoration="undefined" x="902.456787109375" y="525.5" text-anchor="middle" dominant-baseline="central" transform="matrix(1 0 0 1 -190 -70)">SlotOccupiedException</text></g></g><g><rect fill="#C0C0C0" stroke="none" x="303" y="423" width="126.66357421875" height="131" transform="matrix(1 0 0 1 -190 -70)" fill-opacity="0.2"/></g><g><rect fill="#BDDEC7" stroke="none" x="296" y="416" width="126.66357421875" height="131" transform="matrix(1 0 0 1 -190 -70)"/></g><g><path fill="none" stroke="#000000" paint-order="fill stroke markers" d=" M 106 346 L 232.66357421875 346 L 232.66357421875 477 L 106 477 L 106 346 Z Z" stroke-miterlimit="10" stroke-dasharray=""/></g><g><path fill="none" stroke="#000000" paint-order="fill stroke markers" d=" M 106 371 L 232.66357421875 371" stroke-miterlimit="10" stroke-dasharray=""/></g><g><path fill="none" stroke="#000000" paint-order="fill stroke markers" d=" M 106 394 L 232.66357421875 394" stroke-miterlimit="10" stroke-dasharray=""/></g><g><g><path fill="none" stroke="none"/><text fill="#000000" stroke="none" font-family="Arial" font-size="13px" font-style="normal" font-weight="bold" text-decoration="undefined" x="359.831787109375" y="429.5" text-anchor="middle" dominant-baseline="central" transform="matrix(1 0 0 1 -190 -70)">Timer</text></g></g><g><g><path fill="none" stroke="none"/><text fill="#000000" stroke="none" font-family="Arial" font-size="13px" font-style="normal" font-weight="normal" text-decoration="undefined" x="301" y="452.5" text-anchor="start" dominant-baseline="central" transform="matrix(1 0 0 1 -190 -70)">-difficulty: int</text></g></g><g><g><path fill="none" stroke="none"/><text fill="#000000" stroke="none" font-family="Arial" font-size="13px" font-style="normal" font-weight="normal" text-decoration="undefined" x="301" y="475.5" text-anchor="start" dominant-baseline="central" transform="matrix(1 0 0 1 -190 -70)">+Timer(difficulty: int)</text></g></g><g><g><path fill="none" stroke="none"/><text fill="#000000" stroke="none" font-family="Arial" font-size="13px" font-style="normal" font-weight="normal" text-decoration="undefined" x="301" y="490.5" text-anchor="start" dominant-baseline="central" transform="matrix(1 0 0 1 -190 -70)">+display()</text></g></g><g><g><path fill="none" stroke="none"/><text fill="#000000" stroke="none" font-family="Arial" font-size="13px" font-style="normal" font-weight="normal" text-decoration="undefined" x="301" y="505.5" text-anchor="start" dominant-baseline="central" transform="matrix(1 0 0 1 -190 -70)">+warning()</text></g></g><g><g><path fill="none" stroke="none"/><text fill="#000000" stroke="none" font-family="Arial" font-size="13px" font-style="normal" font-weight="normal" text-decoration="undefined" x="301" y="520.5" text-anchor="start" dominant-baseline="central" transform="matrix(1 0 0 1 -190 -70)">+timeOff(): boolean</text></g></g><g><g><path fill="none" stroke="none"/><text fill="#000000" stroke="none" font-family="Arial" font-size="13px" font-style="normal" font-weight="normal" text-decoration="undefined" x="301" y="535.5" text-anchor="start" dominant-baseline="central" transform="matrix(1 0 0 1 -190 -70)">+start()</text></g></g><g><rect fill="#C0C0C0" stroke="none" x="391" y="599" width="80" height="88" transform="matrix(1 0 0 1 -190 -70)" fill-opacity="0.2"/></g><g><rect fill="#BDDEC7" stroke="none" x="384" y="592" width="80" height="88" transform="matrix(1 0 0 1 -190 -70)"/></g><g><path fill="none" stroke="#000000" paint-order="fill stroke markers" d=" M 194 522 L 274 522 L 274 610 L 194 610 L 194 522 Z Z" stroke-miterlimit="10" stroke-dasharray=""/></g><g><path fill="none" stroke="#000000" paint-order="fill stroke markers" d=" M 194 547 L 274 547" stroke-miterlimit="10" stroke-dasharray=""/></g><g><path fill="none" stroke="#000000" paint-order="fill stroke markers" d=" M 194 557 L 274 557" stroke-miterlimit="10" stroke-dasharray=""/></g><g><g><path fill="none" stroke="none"/><text fill="#000000" stroke="none" font-family="Arial" font-size="13px" font-style="normal" font-weight="bold" text-decoration="undefined" x="424.5" y="605.5" text-anchor="middle" dominant-baseline="central" transform="matrix(1 0 0 1 -190 -70)">Light</text></g></g><g><rect fill="#C0C0C0" stroke="none" x="551" y="359" width="224.22705078125" height="206" transform="matrix(1 0 0 1 -190 -70)" fill-opacity="0.2"/></g><g><rect fill="#C4D6E9" stroke="none" x="544" y="352" width="224.22705078125" height="206" transform="matrix(1 0 0 1 -190 -70)"/></g><g><path fill="none" stroke="#000000" paint-order="fill stroke markers" d=" M 354 282 L 578.22705078125 282 L 578.22705078125 488 L 354 488 L 354 282 Z Z" stroke-miterlimit="10" stroke-dasharray=""/></g><g><path fill="none" stroke="#000000" paint-order="fill stroke markers" d=" M 354 307 L 578.22705078125 307" stroke-miterlimit="10" stroke-dasharray=""/></g><g><path fill="none" stroke="#000000" paint-order="fill stroke markers" d=" M 354 360 L 578.22705078125 360" stroke-miterlimit="10" stroke-dasharray=""/></g><g><g><path fill="none" stroke="none"/><text fill="#000000" stroke="none" font-family="Arial" font-size="13px" font-style="normal" font-weight="bold" text-decoration="undefined" x="656.613525390625" y="365.5" text-anchor="middle" dominant-baseline="central" transform="matrix(1 0 0 1 -190 -70)">Grid</text></g></g><g><g><path fill="none" stroke="none"/><text fill="#000000" stroke="none" font-family="Arial" font-size="13px" font-style="normal" font-weight="normal" text-decoration="undefined" x="549" y="388.5" text-anchor="start" dominant-baseline="central" transform="matrix(1 0 0 1 -190 -70)">-slots: Dice[x][y]</text></g></g><g><g><path fill="none" stroke="none"/><text fill="#000000" stroke="none" font-family="Arial" font-size="13px" font-style="normal" font-weight="normal" text-decoration="undefined" x="549" y="403.5" text-anchor="start" dominant-baseline="central" transform="matrix(1 0 0 1 -190 -70)">-dice: Dice[z]</text></g></g><g><g><path fill="none" stroke="none"/><text fill="#000000" stroke="none" font-family="Arial" font-size="13px" font-style="normal" font-weight="normal" text-decoration="undefined" x="549" y="418.5" text-anchor="start" dominant-baseline="central" transform="matrix(1 0 0 1 -190 -70)">#DICE_FACES: List&lt;List&lt;String&gt;&gt;</text><path fill="none" stroke="#000000" paint-order="fill stroke markers" d=" M 359 355 L 559.154296875 355" stroke-miterlimit="10" stroke-dasharray=""/></g></g><g><g><path fill="none" stroke="none"/><text fill="#000000" stroke="none" font-family="Arial" font-size="13px" font-style="normal" font-weight="normal" text-decoration="undefined" x="549" y="441.5" text-anchor="start" dominant-baseline="central" transform="matrix(1 0 0 1 -190 -70)">+Grid()</text></g></g><g><g><path fill="none" stroke="none"/><text fill="#000000" stroke="none" font-family="Arial" font-size="13px" font-style="normal" font-weight="normal" text-decoration="undefined" x="549" y="456.5" text-anchor="start" dominant-baseline="central" transform="matrix(1 0 0 1 -190 -70)">+getSlots(): Dice</text></g></g><g><g><path fill="none" stroke="none"/><text fill="#000000" stroke="none" font-family="Arial" font-size="13px" font-style="normal" font-weight="normal" text-decoration="undefined" x="549" y="471.5" text-anchor="start" dominant-baseline="central" transform="matrix(1 0 0 1 -190 -70)">+setSlot(xSlot: int, ySlot: int, die: Die)</text></g></g><g><g><path fill="none" stroke="none"/><text fill="#000000" stroke="none" font-family="Arial" font-size="13px" font-style="normal" font-weight="normal" text-decoration="undefined" x="549" y="486.5" text-anchor="start" dominant-baseline="central" transform="matrix(1 0 0 1 -190 -70)">+getDice(): Dice</text></g></g><g><g><path fill="none" stroke="none"/><text fill="#000000" stroke="none" font-family="Arial" font-size="13px" font-style="normal" font-weight="normal" text-decoration="undefined" x="549" y="501.5" text-anchor="start" dominant-baseline="central" transform="matrix(1 0 0 1 -190 -70)">+setDice(placeInList: int, die: Die)</text></g></g><g><g><path fill="none" stroke="none"/><text fill="#000000" stroke="none" font-family="Arial" font-size="13px" font-style="normal" font-weight="normal" text-decoration="undefined" x="549" y="516.5" text-anchor="start" dominant-baseline="central" transform="matrix(1 0 0 1 -190 -70)">+displayGrid()</text></g></g><g><g><path fill="none" stroke="none"/><text fill="#000000" stroke="none" font-family="Arial" font-size="13px" font-style="normal" font-weight="normal" text-decoration="undefined" x="549" y="531.5" text-anchor="start" dominant-baseline="central" transform="matrix(1 0 0 1 -190 -70)">+shuffleDice()</text></g></g><g><g><path fill="none" stroke="none"/><text fill="#000000" stroke="none" font-family="Arial" font-size="13px" font-style="normal" font-weight="normal" text-decoration="undefined" x="549" y="546.5" text-anchor="start" dominant-baseline="central" transform="matrix(1 0 0 1 -190 -70)">+resetGrid()</text></g></g><g><path fill="none" stroke="#000000" paint-order="fill stroke markers" d=" M 416 488 L 416 570" stroke-miterlimit="10" stroke-dasharray=""/></g><g><path fill="#FFFFFF" stroke="none" paint-order="stroke fill markers" d=" M 407.580964487968 549.6746502847517 L 416 570 L 424.419035512032 549.6746502847517"/></g><g><path fill="none" stroke="#000000" paint-order="fill stroke markers" d=" M 407.580964487968 549.6746502847517 L 416 570 L 424.419035512032 549.6746502847517 L 407.580964487968 549.6746502847517" stroke-miterlimit="10" stroke-dasharray=""/></g><g><rect fill="#ffffff" stroke="none" x="614" y="596" width="58.89990234375" height="13" transform="matrix(1 0 0 1 -190 -70)"/></g><g><g><path fill="none" stroke="none"/><text fill="#000000" stroke="none" font-family="Arial" font-size="13px" font-style="normal" font-weight="normal" text-decoration="undefined" x="643.449951171875" y="602.5" text-anchor="middle" dominant-baseline="central" transform="matrix(1 0 0 1 -190 -70)">Contains</text></g></g><g><rect fill="#C0C0C0" stroke="none" x="551" y="647" width="149.80712890625" height="161" transform="matrix(1 0 0 1 -190 -70)" fill-opacity="0.2"/></g><g><rect fill="#C4D6E9" stroke="none" x="544" y="640" width="149.80712890625" height="161" transform="matrix(1 0 0 1 -190 -70)"/></g><g><path fill="none" stroke="#000000" paint-order="fill stroke markers" d=" M 354 570 L 503.80712890625 570 L 503.80712890625 731 L 354 731 L 354 570 Z Z" stroke-miterlimit="10" stroke-dasharray=""/></g><g><path fill="none" stroke="#000000" paint-order="fill stroke markers" d=" M 354 595 L 503.80712890625 595" stroke-miterlimit="10" stroke-dasharray=""/></g><g><path fill="none" stroke="#000000" paint-order="fill stroke markers" d=" M 354 633 L 503.80712890625 633" stroke-miterlimit="10" stroke-dasharray=""/></g><g><g><path fill="none" stroke="none"/><text fill="#000000" stroke="none" font-family="Arial" font-size="13px" font-style="normal" font-weight="bold" text-decoration="undefined" x="619.403564453125" y="653.5" text-anchor="middle" dominant-baseline="central" transform="matrix(1 0 0 1 -190 -70)">Die</text></g></g><g><g><path fill="none" stroke="none"/><text fill="#000000" stroke="none" font-family="Arial" font-size="13px" font-style="normal" font-weight="normal" text-decoration="undefined" x="549" y="676.5" text-anchor="start" dominant-baseline="central" transform="matrix(1 0 0 1 -190 -70)">-faces: String[6]</text></g></g><g><g><path fill="none" stroke="none"/><text fill="#000000" stroke="none" font-family="Arial" font-size="13px" font-style="normal" font-weight="normal" text-decoration="undefined" x="549" y="691.5" text-anchor="start" dominant-baseline="central" transform="matrix(1 0 0 1 -190 -70)">-activeFace: String</text></g></g><g><g><path fill="none" stroke="none"/><text fill="#000000" stroke="none" font-family="Arial" font-size="13px" font-style="normal" font-weight="normal" text-decoration="undefined" x="549" y="714.5" text-anchor="start" dominant-baseline="central" transform="matrix(1 0 0 1 -190 -70)">+Die(List&lt;String&gt;)</text></g></g><g><g><path fill="none" stroke="none"/><text fill="#000000" stroke="none" font-family="Arial" font-size="13px" font-style="normal" font-weight="normal" text-decoration="undefined" x="549" y="729.5" text-anchor="start" dominant-baseline="central" transform="matrix(1 0 0 1 -190 -70)">+getActiveFace(): String</text></g></g><g><g><path fill="none" stroke="none"/><text fill="#000000" stroke="none" font-family="Arial" font-size="13px" font-style="normal" font-weight="normal" text-decoration="undefined" x="549" y="744.5" text-anchor="start" dominant-baseline="central" transform="matrix(1 0 0 1 -190 -70)">+getFaces(): String</text></g></g><g><g><path fill="none" stroke="none"/><text fill="#000000" stroke="none" font-family="Arial" font-size="13px" font-style="normal" font-weight="normal" text-decoration="undefined" x="549" y="759.5" text-anchor="start" dominant-baseline="central" transform="matrix(1 0 0 1 -190 -70)">+rollDie()</text></g></g><g><g><path fill="none" stroke="none"/><text fill="#000000" stroke="none" font-family="Arial" font-size="13px" font-style="normal" font-weight="normal" text-decoration="undefined" x="549" y="774.5" text-anchor="start" dominant-baseline="central" transform="matrix(1 0 0 1 -190 -70)">+toString()</text></g></g><g><path fill="none" stroke="#000000" paint-order="fill stroke markers" d=" M 456 211 L 456 282" stroke-miterlimit="10" stroke-dasharray=""/></g><g><path fill="#FFFFFF" stroke="none" paint-order="stroke fill markers" d=" M 447.580964487968 261.6746502847517 L 456 282 L 464.419035512032 261.6746502847517"/></g><g><path fill="none" stroke="#000000" paint-order="fill stroke markers" d=" M 447.580964487968 261.6746502847517 L 456 282 L 464.419035512032 261.6746502847517 L 447.580964487968 261.6746502847517" stroke-miterlimit="10" stroke-dasharray=""/></g><g><rect fill="#ffffff" stroke="none" x="654" y="306" width="53.11083984375" height="13" transform="matrix(1 0 0 1 -190 -70)"/></g><g><g><path fill="none" stroke="none"/><text fill="#000000" stroke="none" font-family="Arial" font-size="13px" font-style="normal" font-weight="normal" text-decoration="undefined" x="680.555419921875" y="312.5" text-anchor="middle" dominant-baseline="central" transform="matrix(1 0 0 1 -190 -70)">Creates</text></g></g><g><rect fill="#C0C0C0" stroke="none" x="559" y="127" width="189.91796875" height="161" transform="matrix(1 0 0 1 -190 -70)" fill-opacity="0.2"/></g><g><rect fill="#C4D6E9" stroke="none" x="552" y="120" width="189.91796875" height="161" transform="matrix(1 0 0 1 -190 -70)"/></g><g><path fill="none" stroke="#000000" paint-order="fill stroke markers" d=" M 362 50 L 551.91796875 50 L 551.91796875 211 L 362 211 L 362 50 Z Z" stroke-miterlimit="10" stroke-dasharray=""/></g><g><path fill="none" stroke="#000000" paint-order="fill stroke markers" d=" M 362 75 L 551.91796875 75" stroke-miterlimit="10" stroke-dasharray=""/></g><g><path fill="none" stroke="#000000" paint-order="fill stroke markers" d=" M 362 98 L 551.91796875 98" stroke-miterlimit="10" stroke-dasharray=""/></g><g><g><path fill="none" stroke="none"/><text fill="#000000" stroke="none" font-family="Arial" font-size="13px" font-style="normal" font-weight="bold" text-decoration="undefined" x="647.458984375" y="133.5" text-anchor="middle" dominant-baseline="central" transform="matrix(1 0 0 1 -190 -70)">BoggleGame</text></g></g><g><g><path fill="none" stroke="none"/><text fill="#000000" stroke="none" font-family="Arial" font-size="13px" font-style="normal" font-weight="normal" text-decoration="undefined" x="557" y="156.5" text-anchor="start" dominant-baseline="central" transform="matrix(1 0 0 1 -190 -70)">-grid: Grid</text></g></g><g><g><path fill="none" stroke="none"/><text fill="#000000" stroke="none" font-family="Arial" font-size="13px" font-style="normal" font-weight="normal" text-decoration="undefined" x="557" y="179.5" text-anchor="start" dominant-baseline="central" transform="matrix(1 0 0 1 -190 -70)">+BoggleGame()</text></g></g><g><g><path fill="none" stroke="none"/><text fill="#000000" stroke="none" font-family="Arial" font-size="13px" font-style="normal" font-weight="normal" text-decoration="undefined" x="557" y="194.5" text-anchor="start" dominant-baseline="central" transform="matrix(1 0 0 1 -190 -70)">+chooseDfficulty(): int</text></g></g><g><g><path fill="none" stroke="none"/><text fill="#000000" stroke="none" font-family="Arial" font-size="13px" font-style="normal" font-weight="normal" text-decoration="undefined" x="557" y="209.5" text-anchor="start" dominant-baseline="central" transform="matrix(1 0 0 1 -190 -70)">+startGame()</text></g></g><g><g><path fill="none" stroke="none"/><text fill="#000000" stroke="none" font-family="Arial" font-size="13px" font-style="normal" font-weight="normal" text-decoration="undefined" x="557" y="224.5" text-anchor="start" dominant-baseline="central" transform="matrix(1 0 0 1 -190 -70)">+displayRules()</text></g></g><g><g><path fill="none" stroke="none"/><text fill="#000000" stroke="none" font-family="Arial" font-size="13px" font-style="normal" font-weight="normal" text-decoration="undefined" x="557" y="239.5" text-anchor="start" dominant-baseline="central" transform="matrix(1 0 0 1 -190 -70)">+chooseAction(): int</text></g></g><g><g><path fill="none" stroke="none"/><text fill="#000000" stroke="none" font-family="Arial" font-size="13px" font-style="normal" font-weight="normal" text-decoration="undefined" x="557" y="254.5" text-anchor="start" dominant-baseline="central" transform="matrix(1 0 0 1 -190 -70)">+playGame()</text></g></g><g><path fill="none" stroke="#000000" paint-order="fill stroke markers" d=" M 362 210 L 177 210 L 177 210 A 8 8 0 0 0 169 218 L 169 346" stroke-miterlimit="10" stroke-dasharray=""/></g><g><path fill="#FFFFFF" stroke="none" paint-order="stroke fill markers" d=" M 160.580964487968 325.6746502847517 L 169 346 L 177.419035512032 325.6746502847517"/></g><g><path fill="none" stroke="#000000" paint-order="fill stroke markers" d=" M 160.580964487968 325.6746502847517 L 169 346 L 177.419035512032 325.6746502847517 L 160.580964487968 325.6746502847517" stroke-miterlimit="10" stroke-dasharray=""/></g><g><rect fill="#ffffff" stroke="none" x="431" y="288" width="41.54541015625" height="13" transform="matrix(1 0 0 1 -190 -70)"/></g><g><g><path fill="none" stroke="none"/><text fill="#000000" stroke="none" font-family="Arial" font-size="13px" font-style="normal" font-weight="normal" text-decoration="undefined" x="451.772705078125" y="294.5" text-anchor="middle" dominant-baseline="central" transform="matrix(1 0 0 1 -190 -70)">Starts</text></g></g><g><path fill="none" stroke="#000000" paint-order="fill stroke markers" d=" M 194 582 L 177 582 L 177 582 A 8 8 0 0 1 169 574 L 169 477" stroke-miterlimit="10" stroke-dasharray=""/></g><g><path fill="#FFFFFF" stroke="none" paint-order="stroke fill markers" d=" M 177.419035512032 497.3253497152483 L 169 477 L 160.580964487968 497.3253497152483"/></g><g><path fill="none" stroke="#000000" paint-order="fill stroke markers" d=" M 177.419035512032 497.3253497152483 L 169 477 L 160.580964487968 497.3253497152483 L 177.419035512032 497.3253497152483" stroke-miterlimit="10" stroke-dasharray=""/></g><g><rect fill="#ffffff" stroke="none" x="296" y="607" width="59.62353515625" height="13" transform="matrix(1 0 0 1 -190 -70)"/></g><g><g><path fill="none" stroke="none"/><text fill="#000000" stroke="none" font-family="Arial" font-size="13px" font-style="normal" font-weight="normal" text-decoration="undefined" x="325.811767578125" y="613.5" text-anchor="middle" dominant-baseline="central" transform="matrix(1 0 0 1 -190 -70)">Indicates</text></g></g></g></svg>